PathFileType	4	(X/Y/Z)	E:\Qualisys_Data\Carbon_Farble_Plate\Data\Amateur_Runner\S1\T2\S1T2V22_c3d.trc
DataRate	CameraRate	NumFrames	NumMarkers	Units	OrigDataRate	OrigDataStartFrame	OrigNumFrames
200.000000	200.000000	4	39	mm	200.000000	0	304
Frame#	Time	LSHO			RSHO			LICST			RICST			LASIS			LHEEL			RASIS			LTROC			RTROC			SACR			LTH1			LSK4			LTH2			LTH3			RHM5			LSK2			LTH4			RTH1			LTOE			RTH2			RTH3			RTH4			LLEP			RLEP			LSK1			LSK3			RSK1			LHM5			RSK2			LFT1			RSK3			RSK4			LLME			RLME			RTOE			RHEEL			RFT1			RFT2			LFT2			
		X1	Y1	Z1	X2	Y2	Z2	X3	Y3	Z3	X4	Y4	Z4	X5	Y5	Z5	X6	Y6	Z6	X7	Y7	Z7	X8	Y8	Z8	X9	Y9	Z9	X10	Y10	Z10	X11	Y11	Z11	X12	Y12	Z12	X13	Y13	Z13	X14	Y14	Z14	X15	Y15	Z15	X16	Y16	Z16	X17	Y17	Z17	X18	Y18	Z18	X19	Y19	Z19	X20	Y20	Z20	X21	Y21	Z21	X22	Y22	Z22	X23	Y23	Z23	X24	Y24	Z24	X25	Y25	Z25	X26	Y26	Z26	X27	Y27	Z27	X28	Y28	Z28	X29	Y29	Z29	X30	Y30	Z30	X31	Y31	Z31	X32	Y32	Z32	X33	Y33	Z33	X34	Y34	Z34	X35	Y35	Z35	X36	Y36	Z36	X37	Y37	Z37	X38	Y38	Z38	X39	Y39	Z39	

1	0	-3336.5830078125	1545.029174804688	-531.0599975585938	-3426.673583984375	1534.814575195312	-221.9690551757812	-3399.1953125	1062.769653320312	-522.2870483398438	-3413.590087890625	1090.639892578125	-227.3408203125	-3359.818603515625	1020.275085449219	-494.0874938964844	-3975.61328125	360.5401000976562	-420.5016784667969	-3375.977294921875	1043.846069335938	-232.5210571289062	-3485.1357421875	955.4560546875	-539.4320068359375	-3471.36181640625	952.3378295898438	-198.3517303466797	-3525.9423828125	1097.861572265625	-378.9965209960938	-3416.133544921875	774.6273193359375	-499.3588562011719	-3857.269287109375	434.0022583007812	-453.3200073242188	-3490.33056640625	793.2864379882812	-533.0961303710938	-3451.96044921875	678.3905639648438	-479.9420776367188	-3000.4736328125	185.8940734863281	-221.0341491699219	-3771.234130859375	481.1127624511719	-490.001708984375	-3529.38623046875	703.1602172851562	-507.1420288085938	-3297.089111328125	882.4995727539062	-222.1841735839844	-3887.4501953125	124.1694869995117	-378.610595703125	-3360.545654296875	840.8861083984375	-193.226318359375	-3243.927978515625	795.491943359375	-225.8411712646484	-3313.264404296875	754.2445678710938	-209.8513946533203	-3564.534423828125	553.4042358398438	-468.1156311035156	-3214.8193359375	618.8865356445312	-241.2266998291016	-3727.43505859375	411.0421752929688	-469.9767150878906	-3817.363037109375	364.1697082519531	-466.239501953125	-3176.321044921875	431.4387512207031	-218.7028656005859	-3943.29052734375	159.1483917236328	-453.4644165039062	-3256.618896484375	414.2759399414062	-235.2407684326172	-3998.52294921875	344.9192199707031	-392.3295288085938	-3152.8115234375	334.3467712402344	-231.9034881591797	-3228.022216796875	319.6876831054688	-259.6052551269531	-3930.458984375	318.8462524414062	-463.540771484375	-3146.74951171875	194.5924835205078	-239.0055236816406	-2954.4013671875	236.9129791259766	-292.7534790039062	-3193.491943359375	130.4898376464844	-286.2348937988281	-3160.819091796875	112.2317047119141	-318.4234924316406	-3167.87841796875	104.4192276000977	-263.1091613769531	-4001.62841796875	338.4453430175781	-445.6383361816406
2	0.005	-3317.024658203125	1545.171997070312	-530.7672119140625	-3407.638916015625	1533.707397460938	-221.3124542236328	-3378.7734375	1062.91162109375	-521.8877563476562	-3394.34765625	1089.643676757812	-227.2051544189453	-3338.9404296875	1020.825622558594	-494.3038024902344	-3957.4775390625	368.2657470703125	-421.29736328125	-3354.88818359375	1042.962036132812	-232.9388427734375	-3464.678955078125	955.4168701171876	-540.0260620117188	-3451.1630859375	949.7506103515624	-198.8238372802734	-3505.20751953125	1097.18603515625	-378.4202575683594	-3393.922119140625	774.7401123046875	-498.3602294921875	-3835.481201171875	438.3446044921875	-453.4205932617188	-3468.453369140625	792.7926025390625	-532.710205078125	-3429.376220703125	678.3887329101562	-480.3121337890625	-2973.817138671875	187.0838317871094	-222.2675170898438	-3749.953857421875	484.5138549804688	-490.2671508789062	-3506.980712890625	702.6240234375	-507.8071899414062	-3279.178466796875	877.9905395507812	-222.9127349853516	-3873.0400390625	130.9823455810547	-379.0606079101562	-3342.988037109375	836.90771484375	-192.037109375	-3226.926513671875	789.7387084960938	-226.7980499267578	-3295.608154296875	750.0164184570312	-208.3279266357422	-3541.51611328125	552.39111328125	-468.3777465820312	-3197.04638671875	615.5783081054688	-242.0163269042969	-3707.968994140625	413.6732788085938	-470.1931457519531	-3799.3134765625	368.6657409667969	-467.0778503417969	-3156.049072265625	428.8124694824219	-218.7181396484375	-3927.482666015625	166.9249114990234	-452.9922180175781	-3235.67822265625	410.795166015625	-236.6817321777344	-3980.372314453125	353.8140563964844	-393.0404052734375	-3130.722900390625	332.7259521484375	-232.4176177978516	-3204.82568359375	316.6961669921875	-260.5259094238281	-3912.408203125	325.1739807128906	-463.6976013183594	-3120.0703125	193.1776275634766	-238.7302703857422	-2929.345947265625	240.3420562744141	-293.9320983886719	-3161.626220703125	126.2820816040039	-285.9842224121094	-3133.1279296875	111.1940536499023	-319.1520080566406	-3140.868408203125	102.2767333984375	-264.2495727539062	-3984.775390625	346.1762390136719	-446.2188720703125
3	0.01	-3296.817626953125	1544.890502929688	-530.1334228515625	-3387.619140625	1533.06591796875	-220.9733581542969	-3358.421630859375	1063.156127929688	-522.1412353515625	-3374.391357421875	1087.928955078125	-227.1050720214844	-3318.532958984375	1020.836853027344	-494.6108093261719	-3937.982421875	376.0460815429688	-421.3668212890625	-3334.209716796875	1041.965209960938	-232.6561126708984	-3443.80615234375	955.3411254882812	-540.2308959960938	-3431.76318359375	948.9286499023438	-199.4996643066406	-3485.06640625	1095.903442382812	-378.3120727539062	-3372.02978515625	774.5394287109375	-499.020263671875	-3815.97705078125	444.6336059570312	-453.8882446289062	-3446.2470703125	792.3218994140625	-533.2002563476562	-3406.099853515625	677.4500732421875	-480.0765075683594	-2948.443359375	187.7632141113281	-224.0682830810547	-3728.569580078125	487.6278686523438	-490.5807495117188	-3483.156005859375	701.40478515625	-508.1417846679688	-3260.068603515625	872.929443359375	-223.1672058105469	-3855.81298828125	138.3018951416016	-379.0643615722656	-3324.06689453125	833.720458984375	-191.6868133544922	-3209.299560546875	784.3237915039062	-226.7841033935547	-3278.86083984375	744.6547241210938	-206.8740997314453	-3518.339599609375	551.2403564453125	-469.3917236328125	-3179.21240234375	611.8267211914062	-242.872314453125	-3688.10009765625	416.3255004882812	-471.6005859375	-3779.8193359375	372.7791748046875	-467.4992980957031	-3135.796630859375	427.4319152832031	-219.5946807861328	-3911.35205078125	174.3793640136719	-452.9411926269531	-3214.628662109375	407.0528564453125	-238.3480529785156	-3961.688720703125	362.2491149902344	-392.8459777832031	-3109.036376953125	331.3895874023438	-233.3682403564453	-3182.5009765625	314.2926330566406	-261.7804870605469	-3893.794921875	331.6750793457031	-464.12841796875	-3096.076904296875	192.0369110107422	-239.7159423828125	-2906.4091796875	242.0692291259766	-295.9650268554688	-3137.714111328125	125.2679443359375	-286.6699829101562	-3108.06201171875	109.8433685302734	-320.0306701660156	-3115.2119140625	100.8375625610352	-265.2522277832031	-3965.737060546875	353.8915405273438	-445.8824157714844
4	0.015	-3276.6416015625	1544.45654296875	-529.7388305664062	-3367.024169921875	1531.421630859375	-219.8205261230469	-3338.212646484375	1062.543579101562	-522.2274780273438	-3353.8798828125	1087.509033203125	-226.7638244628906	-3298.035888671875	1020.499816894531	-494.4378051757812	-3919.721435546875	384.2062072753906	-421.6412048339844	-3313.846435546875	1040.514404296875	-232.6015319824219	-3422.75439453125	954.65185546875	-540.6365356445312	-3411.819580078125	946.578125	-200.0152587890625	-3464.845947265625	1094.46240234375	-377.9183654785156	-3349.45751953125	773.9050903320312	-498.5166931152344	-3794.43701171875	448.9776611328125	-454.3067626953125	-3423.801025390625	791.052490234375	-532.9871826171875	-3383.0478515625	676.9137573242188	-480.0830383300781	-2925.245849609375	187.92578125	-225.5534820556641	-3706.4384765625	490.75537109375	-490.7096557617188	-3460.407958984375	700.2566528320312	-508.8913879394531	-3241.267333984375	868.1751098632812	-223.3256530761719	-3838.049560546875	145.6383056640625	-379.7678527832031	-3306.296630859375	830.046875	-191.1916351318359	-3192.058349609375	779.1989135742188	-227.1779479980469	-3261.165771484375	740.553955078125	-205.5800018310547	-3494.908203125	548.622802734375	-470.1425170898438	-3161.75927734375	607.6871948242188	-243.9651641845703	-3668.029541015625	417.897216796875	-471.9971923828125	-3759.0869140625	376.2277526855469	-467.3353271484375	-3115.908203125	425.1287231445312	-219.4364318847656	-3895.4072265625	182.232421875	-453.5697326660156	-3194.9892578125	405.012451171875	-240.5171813964844	-3941.350341796875	370.0203857421875	-392.5847778320312	-3087.573486328125	329.2268676757812	-234.0134735107422	-3161.048583984375	311.7547912597656	-263.4419555664062	-3875.313232421875	338.4053955078125	-464.5539855957031	-3073.095703125	190.7632751464844	-240.7046203613281	-2884.552490234375	243.3795776367188	-298.0405883789062	-3113.809814453125	123.8323211669922	-286.940673828125	-3084.345947265625	108.0734252929688	-320.1927185058594	-3090.78857421875	98.9107666015625	-265.4195251464844	-3946.963623046875	362.0809936523438	-445.9060668945312
